<?xml version="1.0" encoding="UTF-8" standalone="no"?>
<svg width="512px" height="512px" viewBox="0 0 512 512" version="1.1" xmlns="http://www.w3.org/2000/svg" xmlns:xlink="http://www.w3.org/1999/xlink">
    <!-- Generator: Sketch 3.7 (28169) - http://www.bohemiancoding.com/sketch -->
    <title>icon</title>
    <desc>Created with Sketch.</desc>
    <defs></defs>
    <g id="Page-1" stroke="none" stroke-width="1" fill="none" fill-rule="evenodd">
        <g id="icon">
            <g id="Group" transform="translate(0.000000, 81.000000)">
                <path d="M149.675245,225.267891 C205.557285,202.739487 257.677397,166.944735 307.328225,140.616223 L321.083294,135.85758 C345.615929,122.035395 373.04873,99.8302838 393.637141,80.5518236 C404.011446,70.9097576 405.094174,55.1931899 405.094174,55.2158771 C406.50835,51.3533789 406.613308,45.8914321 402.641463,46.4869715 C396.691981,50.1849874 383.224167,61.1372401 380.683069,57.8305786 C380.064368,57.0024953 382.76014,54.8528817 385.428292,52.6635656 C382.959009,49.3795913 385.870222,36.3174277 388.499705,34.1281116 C389.908357,30.3223314 401.741031,12.17256 402.862428,8.36677985 C408.447317,-0.600341558 375.849461,7.323168 363.519616,13.2728899 C357.02877,15.8875914 360.343244,9.18919136 358.420849,6.73897223 C353.852398,11.8152364 349.36681,11.4692564 344.776262,16.5001461 C344.163085,15.69475 327.833774,27.4013526 319.884559,33.5269004 C319.884559,33.5042132 317.857205,36.4195202 309.869322,42.5110372 C307.223266,44.5472147 244.811712,83.37071 236.028354,88.0839787 C211.843739,99.5296783 185.228509,118.989636 160.662728,135.528615 C158.37768,136.840629 147.652541,150.365699 147.652541,150.365699 C147.652541,150.365699 50.1250041,199.79015 3.07603866,213.175606 C15.2567324,211.570486 24.9239497,211.122413 36.7069065,206.329739 C36.994161,207.333648 37.6128629,209.347139 40.6345588,208.331886 C59.2784778,203.459806 98.9637857,196.61394 98.9637857,196.61394 C111.45383,192.15023 126.926902,185.741092 139.284368,180.437956 L146.592784,180.063617 C155.928554,183.472371 122.452362,199.914929 107.35493,207.639926 L109.012168,211.423019 L115.215759,208.570101 L116.049902,210.475827 C97.4888446,219.125328 76.0220981,229.941457 79.1984695,228.69366 C66.4211703,233.769925 50.0255699,238.392445 37.3808497,244.211715 C34.3591538,246.134456 38.4856745,248.289742 48.7439731,246.185503 C58.6763483,243.009293 75.6022647,238.97664 75.6022647,238.97664 C69.1390394,241.466562 59.0133199,243.967827 52.6716253,247.098663 C49.6499294,249.19723 60.2451995,247.887044 57.2456001,249.974267 C53.8924568,251.080269 70.5311187,245.459512 80.6789348,242.606595 C84.3027602,242.334348 87.9210616,241.971353 88.6668183,243.922453 C104.603917,236.39597 118.480516,233.446632 130.202708,233.633801 C134.251891,234.087546 149.741535,225.35864 159.055208,220.418499 L149.675245,225.267891 Z" id="Shape" fill="#F02F33" transform="translate(204.531739, 127.222449) rotate(-1.000000) translate(-204.531739, -127.222449) "></path>
                <path d="M382.299217,90.0159347 C320.802406,114.961267 263.456433,154.709049 208.833117,183.898924 L193.706567,189.124427 C166.686622,204.448797 136.53076,229.067143 113.856128,250.440772 C102.467154,261.16846 101.282069,278.555363 101.306378,278.53021 C99.7262648,282.825058 99.629027,288.89947 103.95003,288.19519 C110.556121,284.107853 125.366649,271.971606 128.107538,275.618768 C128.812512,276.543135 125.877147,278.932655 122.917472,281.372481 C125.658362,284.981914 122.455593,299.482529 119.593156,301.916066 C118.013042,306.135456 104.946717,326.232578 103.761632,330.451967 C97.5688018,340.399917 133.431306,331.653016 147.050671,325.056682 C154.191569,322.1138 150.545153,329.571618 152.629688,332.262972 C157.637433,326.635023 162.560095,327.043757 167.634691,321.459826 C168.291046,322.346464 186.255723,309.386461 195.019277,302.595193 L208.960742,290.370911 L221.413253,282.378595 C225.977351,276.052655 245.765237,265.777718 246.421592,266.752391 L255.993434,261.231342 C267.965835,252.641646 277.628838,247.309243 287.310073,242.090028 C313.868138,229.400418 343.17317,207.794125 370.241734,189.482855 C373.353342,187.678139 519.550326,105.686156 506.563006,110.987118 C506.216597,109.905546 505.566319,107.673231 502.217694,108.773668 C481.724834,114.175241 459.439153,126.009654 447.831395,126.185724 C444.069509,126.588169 439.450715,124.928082 439.450715,124.928082 L438.095463,121.7714 C424.299855,126.739087 407.331865,133.844765 393.736809,139.705377 L392.229624,136.643019 L385.678229,140.107823 C379.034149,137.666874 392.144548,129.146786 406.716441,121.120896 C414.630494,116.762003 422.975632,112.54888 428.821411,109.534541 C428.821411,109.534541 467.64359,85.6267635 464.149108,87.0101699 C463.760157,85.9285977 463.346896,84.8218725 459.852414,86.2304318 C473.891117,80.602483 491.971264,75.4524383 505.833723,69.0195985 C509.164117,66.8564539 504.593942,64.473222 493.350825,66.8124365 C482.423731,70.3778521 482.065166,69.2711269 489.060208,65.7874581 C492.360215,63.4671083 469.363483,67.6110392 458.223681,70.7740093 C454.218701,71.0758435 450.23803,71.478289 449.435818,69.3214326 C431.90871,77.6596003 416.611994,80.9231818 403.697603,80.721959 C399.224666,80.2503432 382.232366,89.8964587 371.961627,95.3734905 L382.299217,90.0159347 Z" id="Shape" fill="#358BDF" transform="translate(303.843884, 200.027056) rotate(-2.000000) translate(-303.843884, -200.027056) "></path>
                <path d="M174.513725,71.7104847 L240.883084,71.7104847 C260.825011,58.6221829 281.337448,45.2879265 302.779125,33.890563 L137.274965,33.890563 L137.274965,145.347554 C145.456601,137.173954 159.213677,124.085652 174.513725,112.495038 L174.513725,71.7104847 Z" id="Shape" fill="#262524"></path>
                <path d="M355.62335,259.116588 L282.441573,259.116585 C277.103844,262.243723 223.189896,296.92772 223.189896,296.92772 L392.853466,296.927725 L392.853468,187.429432 C380.250378,192.471503 367.694828,200.535457 355.62335,207.417796 L355.62335,259.116588 Z" id="Shape" fill="#262524"></path>
            </g>
        </g>
    </g>
</svg>